{"title":"Predators 2010 R5 LiNE X264 - SDTeam","uid":5850524,"size":480642829,"categoryP":"video","categoryS":"movies","magnet":"?xt=urn:btih:4e9c4d48350ab7d3daf562d09d9add3856031fe4&amp;dn=Predators+2010+R5+LiNE+X264+-+SDTeam&amp;tr=udp%3A%2F%2Ftracker.openbittorrent.com%3A80&amp;tr=udp%3A%2F%2Fopen.demonii.com%3A1337&amp;tr=udp%3A%2F%2Ftracker.coppersurfer.tk%3A6969&amp;tr=udp%3A%2F%2Fexodus.desync.com%3A6969","seeders":0,"leechers":0,"uploader":"bg2k9","files":-1,"time":1285367669,"description":"GREETZ: UnDeaD - BadGirl2k9 - virusofsaten - foxyb - WICCYWOLF - lizzymwah1\n\nVISIT http://www.seedboxworld.biz/ for all ur seedbox needs!\n\nRELEASE NAME: Predators 2010 R5 LiNE X264 - SDTeam\nRELEASED BY: UnDeaD &amp; BadGirl2k9\nSIZE: 458 MB\n\nLANGUAGE: English\nIMDb: http://www.imdb.com/title/tt1424381/\n\nPLOT: A group of elite warriors are hunted by members \nof a merciless alien race known as Predators.\n \nCOVER IMAGE: http://bayimg.com/EAPjIAAcf\nSCREENS: &lt;a href=&quot;\nhttp://i658.photobucket.com/albums/uu309/BadGirl2k9/screens/vlcsnap-2010-09-24-21h30m24s0.png&quot; rel=&quot;nofollow&quot; target=&quot;_NEW&quot;&gt;\nhttp://i658.photobucket.com/albums/uu309/BadGirl2k9/screens/vlcsnap-2010-09-24-21h30m24s0.png&lt;/a&gt; &lt;a href=&quot;\nhttp://i658.photobucket.com/albums/uu309/BadGirl2k9/screens/vlcsnap-2010-09-24-21h30m47s113.png&quot; rel=&quot;nofollow&quot; target=&quot;_NEW&quot;&gt;\nhttp://i658.photobucket.com/albums/uu309/BadGirl2k9/screens/vlcsnap-2010-09-24-21h30m47s113.png&lt;/a&gt; &lt;a href=&quot;\nhttp://i658.photobucket.com/albums/uu309/BadGirl2k9/screens/vlcsnap-2010-09-24-21h30m59s228.png&quot; rel=&quot;nofollow&quot; target=&quot;_NEW&quot;&gt;\nhttp://i658.photobucket.com/albums/uu309/BadGirl2k9/screens/vlcsnap-2010-09-24-21h30m59s228.png&lt;/a&gt;\n\nGeneral\nFormat                           : MPEG-4\nFormat profile                   : Base Media\nCodec ID                         : isom\nFile size                        : 458 MiB\nDuration                         : 1h 42mn\nOverall bit rate                 : 625 Kbps\nEncoded date                     : UTC 2010-09-23 16:56:26\nTagged date                      : UTC 2010-09-23 16:56:26\n\nVideo\nID                               : 1\nFormat                           : AVC\nFormat/Info                      : Advanced Video Codec\nFormat profile                   : &lt;a class=&quot;__cf_email__&quot; href=&quot;/cdn-cgi/l/email-protection&quot; data-cfemail=&quot;86ceefe1eec6cab4a8b4&quot;&gt;[email&amp;#160;protected]&lt;/a&gt;&lt;script data-cfhash='f9e31' type=&quot;text/javascript&quot;&gt;\n/* &lt;![CDATA[ */!function(){try{var t=&quot;currentScript&quot;in document?document.currentScript:function(){for(var t=document.getElementsByTagName(&quot;script&quot;),e=t.length;e--;)if(t[e].getAttribute(&quot;data-cfhash&quot;))return t[e]}();if(t&amp;&amp;t.previousSibling){var e,r,n,i,c=t.previousSibling,a=c.getAttribute(&quot;data-cfemail&quot;);if(a){for(e=&quot;&quot;,r=parseInt(a.substr(0,2),16),n=2;a.length-n;n+=2)i=parseInt(a.substr(n,2),16)^r,e+=String.fromCharCode(i);e=document.createTextNode(e),c.parentNode.replaceChild(e,c)}t.parentNode.removeChild(t);}}catch(u){}}()/* ]]&gt; */&lt;/script&gt;\nFormat settings, CABAC           : Yes\nFormat settings, ReFrames        : 4 frames\nCodec ID                         : avc1\nCodec ID/Info                    : Advanced Video Coding\nDuration                         : 1h 42mn\nDuration_LastFrame               : 50ms\nBit rate mode                    : Variable\nBit rate                         : 494 Kbps\nNominal bit rate                 : 500 Kbps\nMaximum bit rate                 : 4 659 Kbps\nWidth                            : 720 pixels\nHeight                           : 288 pixels\nDisplay aspect ratio             : 2.500\nFrame rate mode                  : Constant\nFrame rate                       : 20.000 fps\nResolution                       : 8 bits\nColorimetry                      : 4:2:0\nScan type                        : Progressive\nBits/(Pixel*Frame)               : 0.119\nStream size                      : 362 MiB (79%)\nTitle                            : Imported with GPAC 0.4.6-DEV (internal rev. 5)\nWriting library                  : x264 core 102 r1666 d058f37\n\nAudio\nID                               : 2\nFormat                           : MPEG Audio\nFormat version                   : Version 1\nFormat profile                   : Layer 3\nCodec ID                         : 6B\nDuration                         : 1h 42mn\nBit rate mode                    : Constant\nBit rate                         : 128 Kbps\nMaximum bit rate                 : 134 Kbps\nChannel(s)                       : 2 channels\nSampling rate                    : 44.1 KHz\nStream size                      : 93.9 MiB (20%)\nTitle                            : Imported with GPAC 0.4.6-DEV (internal rev. 5)\n\nGROUP NOTE: Big thanks to seedboxworld.biz for the seedbox!\n\n","torrent":{"xt":"urn:btih:4e9c4d48350ab7d3daf562d09d9add3856031fe4","amp;dn":"Predators+2010+R5+LiNE+X264+-+SDTeam","amp;tr":["udp%3A%2F%2Ftracker.openbittorrent.com%3A80","udp%3A%2F%2Fopen.demonii.com%3A1337","udp%3A%2F%2Ftracker.coppersurfer.tk%3A6969","udp%3A%2F%2Fexodus.desync.com%3A6969"],"infoHash":"4e9c4d48350ab7d3daf562d09d9add3856031fe4","infoHashBuffer":{"type":"Buffer","data":[78,156,77,72,53,10,183,211,218,245,98,208,157,154,221,56,86,3,31,228]},"announce":[],"urlList":[]}}